<svg xmlns="http://www.w3.org/2000/svg" xmlns:xlink="http://www.w3.org/1999/xlink" version="1.1" x="0px" y="0px" viewBox="0 0 100 125" enable-background="new 0 0 100 100" xml:space="preserve">
  <g>
    <path d="M63.603,24.542c-4.237-1.297-8.707-1.995-13.334-1.995c-6.727,0-13.131,1.47-18.966,4.132   C13.822,34.659,1.553,53.34,1.553,75.11c0,0.915,0.023,1.822,0.06,2.722h47.313h39.267h10.724c0.037-0.9,0.06-1.807,0.06-2.722   C98.977,51.067,84.023,30.797,63.603,24.542z M33.282,28.413c0.023,0.09-0.002,0.251-0.027,0.396   c-0.028,0.169-0.055,0.328-0.031,0.464c0.005,0.03,0.014,0.071,0.024,0.114c0.016,0.071,0.037,0.169,0.039,0.213   c0.009,0.273-0.069,0.841-0.139,1.115c-0.023,0.091-0.281,0.335-0.42,0.466c-0.126,0.119-0.235,0.221-0.286,0.293   c-0.01,0.009-0.025,0.018-0.04,0.028c-0.047,0.031-0.1,0.066-0.134,0.126c-0.116,0.22-0.13,0.606-0.136,1.05   c-0.002,0.119-0.003,0.22-0.009,0.28c-0.032,0.263-0.193,0.933-0.255,1.027c-0.107,0.136-0.26,0.482-0.279,0.676   c-0.007,0.065,0.002,0.134,0.011,0.208c0.006,0.049,0.013,0.1,0.013,0.149c0,0.064-0.006,0.244-0.018,0.435   c0.282-0.562,0.65-1.306,0.773-1.603c0.251-0.616,0.92-1.41,0.949-1.444c0.01-0.012,0.023-0.021,0.039-0.025   c0.011-0.003,1.11-0.306,1.445-0.481c0.186-0.098,0.493-0.3,0.764-0.479c0.155-0.103,0.299-0.197,0.402-0.261   c0.133-0.08,0.53-0.37,0.902-0.647c0.087-0.065,0.144-0.109,0.146-0.11c0.001-0.001,0.003,0,0.004-0.001   c0.038-0.029,0.075-0.056,0.112-0.083c-0.276-0.23-0.584-0.539-0.622-0.66c-0.078-0.243-0.047-0.748-0.009-1.011   c0.031-0.234,0.014-0.842,0.005-1.085l2.334-0.615L40.8,29.05c0.127,0.135,0.333,0.158,0.486,0.053l4.621-3.174l3.102-0.003   l4.931-0.608l3.194,21.432c0.027,0.187,0.204,0.311,0.38,0.32c0.189-0.005,0.345-0.15,0.364-0.338l1.582-16.148l1.582,5.963   c0.045,0.169,0.168,0.291,0.376,0.278c0.175-0.006,0.322-0.133,0.354-0.305l1.742-9.222l0.809,2.002l0.975,1.935   c0.078,0.157,0.258,0.241,0.428,0.194l2.93-0.749l0.349,2.902l1.463,9.629c0.027,0.177,0.175,0.311,0.354,0.318   c0.163,0.009,0.338-0.113,0.381-0.286l1.61-6.652l1.153-2.833l4.059,1.743l1.407,3.845c0.012,0.034,0.03,0.066,0.051,0.095   l2.925,3.937c0.027,0.037,0.061,0.068,0.1,0.092l1.296,0.827v5.652c0,0.179,0.126,0.329,0.294,0.366   c0.05,0.03,0.3,0.208,0.729,0.958l0.205,0.363c0.667,1.183,1.497,2.655,1.971,3.129l0.21,0.204c0.398,0.38,0.743,0.709,0.992,1.591   c0.296,1.04-0.007,3.068-0.01,3.088c-0.018,0.12,0.023,0.242,0.111,0.327l4.271,4.111c-0.032,0.648-0.131,2.995,0.01,5.077   c0.125,1.943,1.302,3.854,1.88,4.685c-1.085,0.354-3.661,1.191-4.54,1.44c-0.209,0.059-0.679,0.129-1.736,0.129   c-0.997,0-2.163-0.062-2.935-0.103c-0.433-0.023-0.765-0.04-0.919-0.04c-0.447,0-5.38-0.98-8.396-1.599   c-1.345-0.23-4.975-0.882-5.616-1.141c-0.318-0.127-0.825-1.77-1.065-3.447c-0.005-0.033-0.014-0.066-0.028-0.097l-1.14-2.602   c-0.056-0.127-0.176-0.213-0.314-0.223c-0.145-0.013-0.271,0.056-0.346,0.172l-1.896,2.976l-1.973-4.655l-1.134-10.354   c-0.02-0.182-0.168-0.323-0.352-0.334c-0.196-0.01-0.347,0.114-0.387,0.292l-1.797,7.989c-0.015,0.093-1.463,9.282-1.78,10.715   c-0.263,1.165-1.826,2.856-2.242,3.29c-0.769,0.026-4.317,0.138-6.943,0.138c-2.332,0-2.76-0.09-2.836-0.117   c-0.577-0.228-2.438-0.431-4.63-0.654c-0.702-0.072-1.303-0.133-1.633-0.178c-0.411-0.06-1.186-0.461-1.936-0.848   c-1-0.517-1.943-1.004-2.554-1.004c-0.207,0-0.379,0.054-0.512,0.159c-0.396,0.309-2.838,0.802-4.344,0.802   c-0.456,0-0.615-0.051-0.656-0.067c-0.287-0.114-0.754-0.17-1.426-0.17c-0.925,0-1.957,0.105-2.252,0.137   c-1.662-0.529-3.58-1.246-3.835-1.501c-0.278-0.281-0.886-0.493-1.856-0.816c-0.874-0.291-1.864-0.62-2.424-1.019   c-0.401-0.285-1.014-0.429-1.821-0.429c-1.287,0-2.664,0.357-2.787,0.396l-4.713,2.236l0.33-0.917l1.602-2.399   c0.041-0.062,0.063-0.134,0.063-0.208V59.276c0.5-1.617,1.394-4.278,1.718-4.707l0.302-0.409c0.577-0.783,2.333-3.166,2.694-3.41   c0.527-0.349,1.835-1.333,2.518-2.149c0.604-0.722,2.007-1.576,2.021-1.584c0.1-0.061,0.166-0.164,0.179-0.281   c0.02-0.187,0.49-4.587,0.49-5.89c0-1.13,0.809-3.247,0.932-3.563c0.559-0.792,1.985-2.663,2.982-3.421l2.011,9.373   c0.038,0.177,0.19,0.316,0.379,0.296c0.181-0.005,0.332-0.14,0.359-0.319l1.791-11.933l3.857-2.777L33.282,28.413z M33.954,28.236   l2.085-0.549c-0.224,0.396-0.603,1.07-0.718,1.307c-0.03,0.062-0.065,0.148-0.104,0.245c-0.072,0.179-0.29,0.722-0.425,0.722   c-0.001,0-0.002,0-0.003,0c-0.183-0.009-0.372-0.654-0.453-0.929c-0.034-0.116-0.064-0.219-0.092-0.294   C34.207,28.633,34.09,28.441,33.954,28.236z"/>
  </g>
</svg>
