<svg xmlns="http://www.w3.org/2000/svg" xmlns:xlink="http://www.w3.org/1999/xlink" version="1.1" x="0px" y="0px" viewBox="0 0 96 120" enable-background="new 0 0 96 96" xml:space="preserve">
  <path d="M90.5,78c-12.9,0-23-10.544-23-24V16c0-1.104-0.9-2-2-2h-20c-1.104,0-2,0.896-2,2c0,3.308-2.692,6-6,6s-6-2.692-6-6  c0-1.104-0.896-2-2-2s-2,0.896-2,2c0,3.308-2.692,6-6,6s-6-2.692-6-6c0-1.104-0.896-2-2-2s-2,0.896-2,2c0,3.308-2.692,6-6,6  c-1.104,0-2,0.896-2,2s0.896,2,2,2c3.268,0,6.172-1.576,8-4.004c1.828,2.432,4.732,4.004,8,4.004s6.172-1.576,8-4.004  c1.828,2.432,4.732,4.004,8,4.004c2.26,0,4.324-0.78,6-2.052V32c0,3.308-2.692,6-6,6s-6-2.692-6-6c0-1.104-0.896-2-2-2s-2,0.896-2,2  c0,3.308-2.692,6-6,6s-6-2.692-6-6c0-1.104-0.896-2-2-2s-2,0.896-2,2c0,3.308-2.692,6-6,6c-1.104,0-2,0.896-2,2s0.896,2,2,2  c3.268,0,6.172-1.576,8-4.004c1.828,2.432,4.732,4.004,8,4.004s6.172-1.576,8-4.004c1.828,2.432,4.732,4.004,8,4.004  c2.26,0,4.324-0.78,6-2.052V48c0,3.309-2.692,6-6,6s-6-2.691-6-6c0-1.104-0.896-2-2-2s-2,0.896-2,2c0,3.309-2.692,6-6,6  s-6-2.691-6-6c0-1.104-0.896-2-2-2s-2,0.896-2,2c0,3.309-2.692,6-6,6c-1.104,0-2,0.9-2,2s0.896,2,2,2c3.268,0,6.172-1.58,8-4.004  c1.828,2.432,4.732,4.004,8,4.004s6.172-1.58,8-4.004c1.828,2.432,4.732,4.004,8,4.004c2.26,0,4.324-0.78,6-2.057V62h-40v20h87  c1.1,0,2-0.9,2-2S91.6,78,90.5,78z"/>
</svg>
