<svg xmlns="http://www.w3.org/2000/svg" xmlns:xlink="http://www.w3.org/1999/xlink" version="1.1" x="0px" y="0px" viewBox="0 0 100 125" enable-background="new 0 0 100 100" xml:space="preserve">
  <path d="M88.413,57.562h-4.176V30.841h-67.64v29.228h-5.011v-2.506h-1.67v2.506v2.505h1.67h5.011v0.835h2.425  c0.485,3.57,3.537,6.325,7.24,6.325c2.973,0,5.526-1.777,6.67-4.324c1.144,2.547,3.698,4.324,6.671,4.324  c3.703,0,6.755-2.755,7.239-6.325h7.47c0.483,3.57,3.536,6.325,7.238,6.325c2.973,0,5.526-1.777,6.671-4.324  c1.144,2.547,3.697,4.324,6.67,4.324c3.703,0,6.755-2.755,7.238-6.325h2.107v-3.34h4.176v2.505h1.67v-2.505v-2.506H88.413z   M50,34.181h20.877v2.505H50V34.181z M50,39.191h20.877v2.505H50V39.191z M50,44.202h20.877v2.505H50V44.202z M26.263,66.181  c-1.732,0-3.176-1.178-3.613-2.772h7.226C29.438,65.003,27.995,66.181,26.263,66.181z M39.604,66.181  c-1.733,0-3.177-1.178-3.613-2.772h7.226C42.779,65.003,41.335,66.181,39.604,66.181z M50,49.212h20.877v2.505H50V49.212z   M61.551,66.181c-1.732,0-3.177-1.178-3.613-2.772h7.226C64.727,65.003,63.283,66.181,61.551,66.181z M74.892,66.181  c-1.732,0-3.177-1.178-3.613-2.772h7.226C78.067,65.003,76.623,66.181,74.892,66.181z"/>
</svg>
